{
	"asset":{
		"generator":"Khronos glTF Blender I/O v5.0.21",
		"version":"2.0"
	},
	"scene":0,
	"scenes":[
		{
			"name":"Scene",
			"nodes":[
				0,
				1,
				2,
				3,
				4,
				5,
				6
			]
		}
	],
	"nodes":[
		{
			"mesh":0,
			"name":"\u7acb\u65b9\u4f53",
			"rotation":[
				0,
				0.2164396047592163,
				0,
				0.9762960076332092
			],
			"scale":[
				1.4430882930755615,
				1,
				1.5281926393508911
			],
			"translation":[
				228.6412811279297,
				1.8787841796875,
				-66.84698486328125
			]
		},
		{
			"mesh":1,
			"name":"\u7acb\u65b9\u4f53.001",
			"rotation":[
				0,
				0.21974337100982666,
				0,
				0.975557804107666
			],
			"translation":[
				138.2648468017578,
				1.7999999523162842,
				-28.771272659301758
			]
		},
		{
			"mesh":2,
			"name":"\u7acb\u65b9\u4f53.002",
			"rotation":[
				0,
				0.21974337100982666,
				0,
				0.975557804107666
			],
			"translation":[
				138.2648468017578,
				1.7999999523162842,
				-28.771272659301758
			]
		},
		{
			"mesh":3,
			"name":"\u7acb\u65b9\u4f53.003",
			"rotation":[
				0.8471099138259888,
				0,
				-0.531417727470398,
				0
			],
			"scale":[
				-1,
				-1,
				-1
			],
			"translation":[
				-11.824596405029297,
				1.7999999523162842,
				117.71705627441406
			]
		},
		{
			"mesh":4,
			"name":"\u7acb\u65b9\u4f53.004",
			"rotation":[
				0.83238285779953,
				0,
				-0.5542010068893433,
				0
			],
			"scale":[
				-1.4430882930755615,
				-1,
				-1.5281926393508911
			],
			"translation":[
				-51.68256378173828,
				1.8787841796875,
				224.54440307617188
			]
		},
		{
			"mesh":5,
			"name":"NURBS\u66f2\u7ebf",
			"rotation":[
				0,
				0.3973848223686218,
				0,
				0.9176521897315979
			],
			"scale":[
				100,
				8,
				55.000003814697266
			],
			"translation":[
				80.26365661621094,
				0,
				81.66505432128906
			]
		},
		{
			"mesh":6,
			"name":"\u7acb\u65b9\u4f53.005",
			"rotation":[
				0,
				0.41317054629325867,
				0,
				0.9106536507606506
			],
			"scale":[
				30.000001907348633,
				0.20000000298023224,
				30.000001907348633
			],
			"translation":[
				-4.111881256103516,
				0,
				-7.228872299194336
			]
		}
	],
	"meshes":[
		{
			"name":"\u7acb\u65b9\u4f53",
			"primitives":[
				{
					"attributes":{
						"POSITION":0,
						"NORMAL":1,
						"TEXCOORD_0":2
					},
					"indices":3
				}
			]
		},
		{
			"name":"\u7acb\u65b9\u4f53.002",
			"primitives":[
				{
					"attributes":{
						"POSITION":4,
						"NORMAL":5,
						"TEXCOORD_0":6
					},
					"indices":7
				}
			]
		},
		{
			"name":"\u7acb\u65b9\u4f53.001",
			"primitives":[
				{
					"attributes":{
						"POSITION":8,
						"NORMAL":9,
						"TEXCOORD_0":10
					},
					"indices":7
				}
			]
		},
		{
			"name":"\u7acb\u65b9\u4f53.003",
			"primitives":[
				{
					"attributes":{
						"POSITION":11,
						"NORMAL":12,
						"TEXCOORD_0":13
					},
					"indices":7
				}
			]
		},
		{
			"name":"\u7acb\u65b9\u4f53.004",
			"primitives":[
				{
					"attributes":{
						"POSITION":14,
						"NORMAL":15,
						"TEXCOORD_0":16
					},
					"indices":3
				}
			]
		},
		{
			"name":"NURBS\u66f2\u7ebf",
			"primitives":[
				{
					"attributes":{
						"POSITION":17,
						"NORMAL":18,
						"TEXCOORD_0":19
					},
					"indices":20
				}
			]
		},
		{
			"name":"\u7acb\u65b9\u4f53.005",
			"primitives":[
				{
					"attributes":{
						"POSITION":21,
						"NORMAL":22,
						"TEXCOORD_0":23
					},
					"indices":24
				}
			]
		}
	],
	"accessors":[
		{
			"bufferView":0,
			"componentType":5126,
			"count":40,
			"max":[
				9.446362495422363,
				1.9663206338882446,
				8.185659408569336
			],
			"min":[
				-100.03124237060547,
				-2.3629696369171143,
				-20.79991340637207
			],
			"type":"VEC3"
		},
		{
			"bufferView":1,
			"componentType":5126,
			"count":40,
			"type":"VEC3"
		},
		{
			"bufferView":2,
			"componentType":5126,
			"count":40,
			"type":"VEC2"
		},
		{
			"bufferView":3,
			"componentType":5123,
			"count":60,
			"type":"SCALAR"
		},
		{
			"bufferView":4,
			"componentType":5126,
			"count":24,
			"max":[
				4.8087921142578125,
				1.7161340713500977,
				16.760000228881836
			],
			"min":[
				-87.44451904296875,
				-1.7161340713500977,
				-8.216730117797852
			],
			"type":"VEC3"
		},
		{
			"bufferView":5,
			"componentType":5126,
			"count":24,
			"type":"VEC3"
		},
		{
			"bufferView":6,
			"componentType":5126,
			"count":24,
			"type":"VEC2"
		},
		{
			"bufferView":7,
			"componentType":5123,
			"count":36,
			"type":"SCALAR"
		},
		{
			"bufferView":8,
			"componentType":5126,
			"count":24,
			"max":[
				4.8087921142578125,
				1.7161340713500977,
				9.284798622131348
			],
			"min":[
				-61.52340316772461,
				-1.7161340713500977,
				-8.216730117797852
			],
			"type":"VEC3"
		},
		{
			"bufferView":9,
			"componentType":5126,
			"count":24,
			"type":"VEC3"
		},
		{
			"bufferView":10,
			"componentType":5126,
			"count":24,
			"type":"VEC2"
		},
		{
			"bufferView":11,
			"componentType":5126,
			"count":24,
			"max":[
				4.8087921142578125,
				1.7161340713500977,
				9.284798622131348
			],
			"min":[
				-61.52340316772461,
				-1.7161340713500977,
				-8.216730117797852
			],
			"type":"VEC3"
		},
		{
			"bufferView":12,
			"componentType":5126,
			"count":24,
			"type":"VEC3"
		},
		{
			"bufferView":13,
			"componentType":5126,
			"count":24,
			"type":"VEC2"
		},
		{
			"bufferView":14,
			"componentType":5126,
			"count":40,
			"max":[
				9.446362495422363,
				1.9663206338882446,
				8.185659408569336
			],
			"min":[
				-100.03124237060547,
				-2.3629696369171143,
				-20.79991340637207
			],
			"type":"VEC3"
		},
		{
			"bufferView":15,
			"componentType":5126,
			"count":40,
			"type":"VEC3"
		},
		{
			"bufferView":16,
			"componentType":5126,
			"count":40,
			"type":"VEC2"
		},
		{
			"bufferView":17,
			"componentType":5126,
			"count":72,
			"max":[
				0.7499973177909851,
				0.1000000387430191,
				-0.8333333730697632
			],
			"min":[
				-0.75,
				-0.1000000387430191,
				-0.9582313299179077
			],
			"type":"VEC3"
		},
		{
			"bufferView":18,
			"componentType":5126,
			"count":72,
			"type":"VEC3"
		},
		{
			"bufferView":19,
			"componentType":5126,
			"count":72,
			"type":"VEC2"
		},
		{
			"bufferView":20,
			"componentType":5123,
			"count":210,
			"type":"SCALAR"
		},
		{
			"bufferView":21,
			"componentType":5126,
			"count":24,
			"max":[
				2.6798925399780273,
				18.172391891479492,
				2.3868250846862793
			],
			"min":[
				-3.166881561279297,
				-1,
				-1
			],
			"type":"VEC3"
		},
		{
			"bufferView":22,
			"componentType":5126,
			"count":24,
			"type":"VEC3"
		},
		{
			"bufferView":23,
			"componentType":5126,
			"count":24,
			"type":"VEC2"
		},
		{
			"bufferView":24,
			"componentType":5123,
			"count":36,
			"type":"SCALAR"
		}
	],
	"bufferViews":[
		{
			"buffer":0,
			"byteLength":480,
			"byteOffset":0,
			"target":34962
		},
		{
			"buffer":0,
			"byteLength":480,
			"byteOffset":480,
			"target":34962
		},
		{
			"buffer":0,
			"byteLength":320,
			"byteOffset":960,
			"target":34962
		},
		{
			"buffer":0,
			"byteLength":120,
			"byteOffset":1280,
			"target":34963
		},
		{
			"buffer":0,
			"byteLength":288,
			"byteOffset":1400,
			"target":34962
		},
		{
			"buffer":0,
			"byteLength":288,
			"byteOffset":1688,
			"target":34962
		},
		{
			"buffer":0,
			"byteLength":192,
			"byteOffset":1976,
			"target":34962
		},
		{
			"buffer":0,
			"byteLength":72,
			"byteOffset":2168,
			"target":34963
		},
		{
			"buffer":0,
			"byteLength":288,
			"byteOffset":2240,
			"target":34962
		},
		{
			"buffer":0,
			"byteLength":288,
			"byteOffset":2528,
			"target":34962
		},
		{
			"buffer":0,
			"byteLength":192,
			"byteOffset":2816,
			"target":34962
		},
		{
			"buffer":0,
			"byteLength":288,
			"byteOffset":3008,
			"target":34962
		},
		{
			"buffer":0,
			"byteLength":288,
			"byteOffset":3296,
			"target":34962
		},
		{
			"buffer":0,
			"byteLength":192,
			"byteOffset":3584,
			"target":34962
		},
		{
			"buffer":0,
			"byteLength":480,
			"byteOffset":3776,
			"target":34962
		},
		{
			"buffer":0,
			"byteLength":480,
			"byteOffset":4256,
			"target":34962
		},
		{
			"buffer":0,
			"byteLength":320,
			"byteOffset":4736,
			"target":34962
		},
		{
			"buffer":0,
			"byteLength":864,
			"byteOffset":5056,
			"target":34962
		},
		{
			"buffer":0,
			"byteLength":864,
			"byteOffset":5920,
			"target":34962
		},
		{
			"buffer":0,
			"byteLength":576,
			"byteOffset":6784,
			"target":34962
		},
		{
			"buffer":0,
			"byteLength":420,
			"byteOffset":7360,
			"target":34963
		},
		{
			"buffer":0,
			"byteLength":288,
			"byteOffset":7780,
			"target":34962
		},
		{
			"buffer":0,
			"byteLength":288,
			"byteOffset":8068,
			"target":34962
		},
		{
			"buffer":0,
			"byteLength":192,
			"byteOffset":8356,
			"target":34962
		},
		{
			"buffer":0,
			"byteLength":72,
			"byteOffset":8548,
			"target":34963
		}
	],
	"buffers":[
		{
			"byteLength":8620,
			"uri":"ZSQ.bin"
		}
	]
}
